<svg xmlns="http://www.w3.org/2000/svg" viewBox="0 0 800 560" width="100%" height="100%">
  <defs>
    <linearGradient id="bg-grad-pbi" x1="0%" y1="0%" x2="100%" y2="100%">
      <stop offset="0%" stop-color="#140f09"/>
      <stop offset="50%" stop-color="#241a0e"/>
      <stop offset="100%" stop-color="#100b06"/>
    </linearGradient>
    <linearGradient id="amber-gold" x1="0%" y1="0%" x2="100%" y2="0%">
      <stop offset="0%" stop-color="#F59E0B"/>
      <stop offset="100%" stop-color="#10B981"/>
    </linearGradient>
    <pattern id="grid-pbi" width="40" height="40" patternUnits="userSpaceOnUse">
      <path d="M 40 0 L 0 0 0 40" fill="none" stroke="rgba(245, 158, 11, 0.05)" stroke-width="1"/>
    </pattern>
  </defs>

  <rect width="800" height="560" fill="url(#bg-grad-pbi)"/>
  <rect width="800" height="560" fill="url(#grid-pbi)"/>

  <rect x="20" y="20" width="760" height="520" fill="none" stroke="url(#amber-gold)" stroke-width="2" opacity="0.8"/>
  <rect x="30" y="30" width="740" height="500" fill="none" stroke="#27272a" stroke-width="1"/>

  <path d="M 20 50 L 20 20 L 50 20" fill="none" stroke="#F59E0B" stroke-width="4"/>
  <path d="M 780 50 L 780 20 L 750 20" fill="none" stroke="#F59E0B" stroke-width="4"/>
  <path d="M 20 510 L 20 540 L 50 540" fill="none" stroke="#F59E0B" stroke-width="4"/>
  <path d="M 780 510 L 780 540 L 750 540" fill="none" stroke="#F59E0B" stroke-width="4"/>

  <!-- Chart Icon -->
  <g transform="translate(370, 75)">
    <rect x="5" y="30" width="12" height="25" fill="#F59E0B" rx="2"/>
    <rect x="23" y="15" width="12" height="40" fill="#10B981" rx="2"/>
    <rect x="41" y="5" width="12" height="50" fill="#00F0FF" rx="2"/>
  </g>

  <text x="400" y="185" text-anchor="middle" fill="#94a3b8" font-family="'JetBrains Mono', monospace" font-size="14" letter-spacing="4">PROFESSIONAL CERTIFICATE</text>
  <text x="400" y="225" text-anchor="middle" fill="#F59E0B" font-family="'JetBrains Mono', monospace" font-size="24" font-weight="bold" letter-spacing="2">POWER BI &amp; DASHBOARD DESIGN EXPERT</text>

  <line x1="200" y1="245" x2="600" y2="245" stroke="url(#amber-gold)" stroke-width="2"/>

  <text x="400" y="280" text-anchor="middle" fill="#94a3b8" font-family="'Inter', sans-serif" font-size="14">PROUDLY PRESENTED TO</text>
  <text x="400" y="325" text-anchor="middle" fill="#f8fafc" font-family="'Inter', sans-serif" font-size="32" font-weight="800">MD TOUSIF RAZA</text>

  <text x="400" y="365" text-anchor="middle" fill="#94a3b8" font-family="'Inter', sans-serif" font-size="14">For expertise in DAX, Data Modeling, Dynamic Visualizations, Power Query,</text>
  <text x="400" y="388" text-anchor="middle" fill="#94a3b8" font-family="'Inter', sans-serif" font-size="14">and Business Intelligence Dashboard Deployment.</text>

  <g transform="translate(100, 440)">
    <text x="0" y="20" fill="#F59E0B" font-family="'JetBrains Mono', monospace" font-size="16" font-weight="bold">ISSUER: POWER BI ANALYTICS</text>
    <text x="0" y="40" fill="#475569" font-family="'JetBrains Mono', monospace" font-size="12">CERTIFIED BI DEVELOPER</text>

    <text x="600" y="20" text-anchor="end" fill="#10B981" font-family="'JetBrains Mono', monospace" font-size="16" font-weight="bold">CREDENTIAL ID: MTR-PBI-4021</text>
    <text x="600" y="40" text-anchor="end" fill="#475569" font-family="'JetBrains Mono', monospace" font-size="12">STATUS: VERIFIED ACTIVE</text>
  </g>
</svg>
